<svg xmlns="http://www.w3.org/2000/svg" viewBox="0 0 64 64" width="64" height="64" fill="currentColor">
    <g>
        <!-- WiFi signal arcs -->
        <path d="M32 46c-2.21 0-4 1.79-4 4s1.79 4 4 4 4-1.79 4-4-1.79-4-4-4zm0-8c-5.52 0-10.43 2.13-14.14 5.72l-2.83-2.83C19.59 37.91 25.63 35 32 35s12.41 2.91 16.97 7.88l-2.83 2.83C42.43 40.13 37.52 38 32 38zm0-10c-9.09 0-17.31 3.68-23.55 9.64l-2.83-2.83C12.77 28.92 21.96 25 32 25s19.23 3.92 26.38 10.81l-2.83 2.83C49.31 31.68 41.09 28 32 28zm0-10c-12.57 0-24.16 5.05-32.86 13.16l-2.83-2.83C7.71 13.41 19.26 8 32 8s24.29 5.41 32.69 14.33l-2.83 2.83C56.16 18.05 44.57 13 32 13z"/>
    </g>
</svg>
